<?xml version="1.0" encoding="iso-8859-1"?>
<!-- Generator: Adobe Illustrator 19.0.0, SVG Export Plug-In . SVG Version: 6.00 Build 0)  -->
<svg version="1.1" id="Layer_1" xmlns="http://www.w3.org/2000/svg" xmlns:xlink="http://www.w3.org/1999/xlink" x="0px" y="0px"
	 viewBox="0 0 330.008 330.008" style="enable-background:new 0 0 330.008 330.008;" xml:space="preserve">
<g id="XMLID_924_">
	<g id="XMLID_925_">
		<path id="XMLID_926_" d="M315.008,300.004h-55.242c42.45-29.886,70.242-79.258,70.242-135.004
			c0-90.979-74.017-164.996-164.996-164.996C74.024,0.004,0,74.021,0,165c0,90.983,74.024,165.004,165.012,165.004h149.996
			c8.284,0,15-6.716,15-15C330.008,306.72,323.292,300.004,315.008,300.004z M30,165C30,90.563,90.566,30.004,165.012,30.004
			c74.437,0,134.996,60.559,134.996,134.996c0,74.441-60.559,135.004-134.996,135.004C90.566,300.004,30,239.441,30,165z"/>
	</g>
	<g id="XMLID_929_">
		<circle id="XMLID_930_" cx="165.004" cy="225.004" r="30"/>
	</g>
	<g id="XMLID_931_">
		<circle id="XMLID_932_" cx="165.004" cy="105.004" r="30"/>
	</g>
	<g id="XMLID_933_">
		<circle id="XMLID_934_" cx="105.004" cy="165.004" r="30"/>
	</g>
	<g id="XMLID_935_">
		<circle id="XMLID_936_" cx="225.004" cy="165.004" r="30"/>
	</g>
</g>
<g>
</g>
<g>
</g>
<g>
</g>
<g>
</g>
<g>
</g>
<g>
</g>
<g>
</g>
<g>
</g>
<g>
</g>
<g>
</g>
<g>
</g>
<g>
</g>
<g>
</g>
<g>
</g>
<g>
</g>
</svg>
