<svg id="visual" viewBox="0 0 1920 1080" width="1920" height="1080" xmlns="http://www.w3.org/2000/svg" xmlns:xlink="http://www.w3.org/1999/xlink" version="1.1"><rect x="0" y="0" width="1920" height="1080" fill="#303030"></rect><defs><linearGradient id="grad1_0" x1="43.8%" y1="0%" x2="100%" y2="100%"><stop offset="14.444444444444446%" stop-color="#303030" stop-opacity="1"></stop><stop offset="85.55555555555554%" stop-color="#303030" stop-opacity="1"></stop></linearGradient></defs><defs><linearGradient id="grad2_0" x1="0%" y1="0%" x2="56.3%" y2="100%"><stop offset="14.444444444444446%" stop-color="#303030" stop-opacity="1"></stop><stop offset="85.55555555555554%" stop-color="#303030" stop-opacity="1"></stop></linearGradient></defs><g transform="translate(1920, 0)"><path d="M0 972C-121 927.2 -241.9 882.4 -340.6 822.3C-439.3 762.1 -515.6 686.5 -614.5 614.5C-713.3 542.4 -834.7 473.8 -898 372C-961.3 270.1 -966.7 135.1 -972 0L0 0Z" fill="#303030"></path></g><g transform="translate(0, 1080)"><path d="M0 -972C132 -964.2 263.9 -956.4 372 -898C480 -839.6 564.2 -730.6 628.6 -628.6C693.1 -526.6 737.8 -431.6 791.8 -328C845.7 -224.4 908.9 -112.2 972 0L0 0Z" fill="#303030"></path></g></svg>