<svg id="visual" viewBox="0 0 1920 1080" width="1920" height="1080" xmlns="http://www.w3.org/2000/svg" xmlns:xlink="http://www.w3.org/1999/xlink" version="1.1"><g stroke-width="1" stroke-linejoin="bevel"><path d="M1051.7 564L1103.7 727L1269 685Z" fill="#fcfcfe" stroke="#fcfcfe"></path><path d="M1269 685L1311 507L1051.7 564Z" fill="#fcfcfe" stroke="#fcfcfe"></path><path d="M1311 507L1256 359L1051.7 564Z" fill="#ffffff" stroke="#ffffff"></path><path d="M848.3 733L1074.7 896L1103.7 727Z" fill="#ffffff" stroke="#ffffff"></path><path d="M1103.7 727L1317 935L1269 685Z" fill="#f9f9fc" stroke="#f9f9fc"></path><path d="M1256 359L1035.7 343L1051.7 564Z" fill="#ffffff" stroke="#ffffff"></path><path d="M1051.7 564L848.3 733L1103.7 727Z" fill="#fafafd" stroke="#fafafd"></path><path d="M1035.7 343L846.3 560L1051.7 564Z" fill="#fafafd" stroke="#fafafd"></path><path d="M846.3 560L848.3 733L1051.7 564Z" fill="#f6f6fb" stroke="#f6f6fb"></path><path d="M1269 685L1495.3 500L1311 507Z" fill="#ffffff" stroke="#ffffff"></path><path d="M1311 507L1461.3 386L1256 359Z" fill="#f8f8fc" stroke="#f8f8fc"></path><path d="M1508.3 742L1495.3 500L1269 685Z" fill="#f7f7fb" stroke="#f7f7fb"></path><path d="M1074.7 896L1317 935L1103.7 727Z" fill="#f7f7fb" stroke="#f7f7fb"></path><path d="M1462.3 875L1508.3 742L1269 685Z" fill="#fdfdfe" stroke="#fdfdfe"></path><path d="M1495.3 500L1461.3 386L1311 507Z" fill="#fafafd" stroke="#fafafd"></path><path d="M1317 935L1462.3 875L1269 685Z" fill="#ffffff" stroke="#ffffff"></path><path d="M848.3 733L853.3 906L1074.7 896Z" fill="#fcfcfe" stroke="#fcfcfe"></path><path d="M1074.7 896L1293 1080L1317 935Z" fill="#f9f9fc" stroke="#f9f9fc"></path><path d="M1035.7 343L822.3 361L846.3 560Z" fill="#fefeff" stroke="#fefeff"></path><path d="M846.3 560L634 692L848.3 733Z" fill="#f9f9fc" stroke="#f9f9fc"></path><path d="M848.3 733L620 905L853.3 906Z" fill="#fcfcfe" stroke="#fcfcfe"></path><path d="M1256 359L1082.7 172L1035.7 343Z" fill="#f8f8fc" stroke="#f8f8fc"></path><path d="M1035.7 343L887.3 187L822.3 361Z" fill="#fcfcfe" stroke="#fcfcfe"></path><path d="M1240 163L1082.7 172L1256 359Z" fill="#fcfcfe" stroke="#fcfcfe"></path><path d="M1461.3 386L1240 163L1256 359Z" fill="#f7f7fb" stroke="#f7f7fb"></path><path d="M853.3 906L1071.7 1080L1074.7 896Z" fill="#f5f5fa" stroke="#f5f5fa"></path><path d="M1317 935L1470.3 1080L1462.3 875Z" fill="#fafafd" stroke="#fafafd"></path><path d="M1071.7 1080L1293 1080L1074.7 896Z" fill="#ffffff" stroke="#ffffff"></path><path d="M1082.7 172L887.3 187L1035.7 343Z" fill="#f6f6fb" stroke="#f6f6fb"></path><path d="M673 362L649 507L822.3 361Z" fill="#fefeff" stroke="#fefeff"></path><path d="M822.3 361L649 507L846.3 560Z" fill="#f8f8fc" stroke="#f8f8fc"></path><path d="M649 507L634 692L846.3 560Z" fill="#f7f7fb" stroke="#f7f7fb"></path><path d="M1686.7 386L1532.3 207L1461.3 386Z" fill="#ffffff" stroke="#ffffff"></path><path d="M1461.3 386L1532.3 207L1240 163Z" fill="#fafafd" stroke="#fafafd"></path><path d="M1686.7 386L1461.3 386L1495.3 500Z" fill="#fdfdfe" stroke="#fdfdfe"></path><path d="M677 145L673 362L822.3 361Z" fill="#fdfdfe" stroke="#fdfdfe"></path><path d="M1462.3 875L1705.7 755L1508.3 742Z" fill="#f5f5fa" stroke="#f5f5fa"></path><path d="M1293 1080L1470.3 1080L1317 935Z" fill="#ffffff" stroke="#ffffff"></path><path d="M1721.7 925L1705.7 755L1462.3 875Z" fill="#fbfbfd" stroke="#fbfbfd"></path><path d="M1508.3 742L1734.7 557L1495.3 500Z" fill="#fbfbfd" stroke="#fbfbfd"></path><path d="M853.3 906L835.3 1080L1071.7 1080Z" fill="#fefeff" stroke="#fefeff"></path><path d="M620 905L835.3 1080L853.3 906Z" fill="#f7f7fb" stroke="#f7f7fb"></path><path d="M1734.7 557L1686.7 386L1495.3 500Z" fill="#f8f8fc" stroke="#f8f8fc"></path><path d="M1705.7 755L1734.7 557L1508.3 742Z" fill="#f5f5fa" stroke="#f5f5fa"></path><path d="M634 692L620 905L848.3 733Z" fill="#f9f9fc" stroke="#f9f9fc"></path><path d="M1082.7 172L883.3 0L887.3 187Z" fill="#ffffff" stroke="#ffffff"></path><path d="M887.3 187L677 145L822.3 361Z" fill="#ffffff" stroke="#ffffff"></path><path d="M1240 163L1086.7 0L1082.7 172Z" fill="#f9f9fc" stroke="#f9f9fc"></path><path d="M1256 0L1086.7 0L1240 163Z" fill="#f9f9fc" stroke="#f9f9fc"></path><path d="M1509.3 0L1256 0L1240 163Z" fill="#fefeff" stroke="#fefeff"></path><path d="M1470.3 1080L1721.7 925L1462.3 875Z" fill="#f8f8fc" stroke="#f8f8fc"></path><path d="M1920 744L1920 523L1734.7 557Z" fill="#fbfbfd" stroke="#fbfbfd"></path><path d="M1086.7 0L883.3 0L1082.7 172Z" fill="#fefeff" stroke="#fefeff"></path><path d="M883.3 0L677 145L887.3 187Z" fill="#fcfcfe" stroke="#fcfcfe"></path><path d="M394.7 344L427.7 546L649 507Z" fill="#f6f6fb" stroke="#f6f6fb"></path><path d="M649 507L427.7 546L634 692Z" fill="#f9f9fc" stroke="#f9f9fc"></path><path d="M1686.7 386L1696.7 152L1532.3 207Z" fill="#f6f6fb" stroke="#f6f6fb"></path><path d="M1532.3 207L1509.3 0L1240 163Z" fill="#f5f5fa" stroke="#f5f5fa"></path><path d="M1920 388L1696.7 152L1686.7 386Z" fill="#ffffff" stroke="#ffffff"></path><path d="M1696.7 152L1509.3 0L1532.3 207Z" fill="#f7f7fb" stroke="#f7f7fb"></path><path d="M620 905L624 1080L835.3 1080Z" fill="#f5f5fa" stroke="#f5f5fa"></path><path d="M394.7 344L649 507L673 362Z" fill="#f7f7fb" stroke="#f7f7fb"></path><path d="M634 692L429.7 723L620 905Z" fill="#fcfcfe" stroke="#fcfcfe"></path><path d="M620 905L446.7 935L624 1080Z" fill="#f5f5fa" stroke="#f5f5fa"></path><path d="M427.7 546L429.7 723L634 692Z" fill="#fefeff" stroke="#fefeff"></path><path d="M1470.3 1080L1745.7 1080L1721.7 925Z" fill="#fbfbfd" stroke="#fbfbfd"></path><path d="M1920 744L1734.7 557L1705.7 755Z" fill="#fefeff" stroke="#fefeff"></path><path d="M1920 744L1705.7 755L1920 870Z" fill="#f9f9fc" stroke="#f9f9fc"></path><path d="M1734.7 557L1920 388L1686.7 386Z" fill="#fafafd" stroke="#fafafd"></path><path d="M1920 870L1705.7 755L1721.7 925Z" fill="#f7f7fb" stroke="#f7f7fb"></path><path d="M429.7 723L446.7 935L620 905Z" fill="#f7f7fb" stroke="#f7f7fb"></path><path d="M1920 523L1920 388L1734.7 557Z" fill="#fefeff" stroke="#fefeff"></path><path d="M1920 1080L1920 870L1721.7 925Z" fill="#fbfbfd" stroke="#fbfbfd"></path><path d="M1920 0L1677.7 0L1696.7 152Z" fill="#fbfbfd" stroke="#fbfbfd"></path><path d="M1696.7 152L1677.7 0L1509.3 0Z" fill="#fbfbfd" stroke="#fbfbfd"></path><path d="M406.7 182L394.7 344L673 362Z" fill="#fefeff" stroke="#fefeff"></path><path d="M427.7 546L221.3 686L429.7 723Z" fill="#fdfdfe" stroke="#fdfdfe"></path><path d="M429.7 723L225.3 933L446.7 935Z" fill="#ffffff" stroke="#ffffff"></path><path d="M883.3 0L615 0L677 145Z" fill="#fbfbfd" stroke="#fbfbfd"></path><path d="M677 145L406.7 182L673 362Z" fill="#fcfcfe" stroke="#fcfcfe"></path><path d="M446.7 935L465.7 1080L624 1080Z" fill="#f7f7fb" stroke="#f7f7fb"></path><path d="M615 0L406.7 182L677 145Z" fill="#fbfbfd" stroke="#fbfbfd"></path><path d="M1745.7 1080L1920 1080L1721.7 925Z" fill="#fbfbfd" stroke="#fbfbfd"></path><path d="M1920 388L1920 141L1696.7 152Z" fill="#fefeff" stroke="#fefeff"></path><path d="M188.3 571L221.3 686L427.7 546Z" fill="#f9f9fc" stroke="#f9f9fc"></path><path d="M446.7 935L225.3 933L465.7 1080Z" fill="#f5f5fa" stroke="#f5f5fa"></path><path d="M188.3 571L427.7 546L192.3 383Z" fill="#f9f9fc" stroke="#f9f9fc"></path><path d="M615 0L418.7 0L406.7 182Z" fill="#f6f6fb" stroke="#f6f6fb"></path><path d="M192.3 383L427.7 546L394.7 344Z" fill="#f5f5fa" stroke="#f5f5fa"></path><path d="M1920 141L1920 0L1696.7 152Z" fill="#fbfbfd" stroke="#fbfbfd"></path><path d="M192.3 383L394.7 344L219.3 154Z" fill="#f9f9fc" stroke="#f9f9fc"></path><path d="M0 758L225.3 933L221.3 686Z" fill="#f7f7fb" stroke="#f7f7fb"></path><path d="M221.3 686L225.3 933L429.7 723Z" fill="#f5f5fa" stroke="#f5f5fa"></path><path d="M219.3 154L394.7 344L406.7 182Z" fill="#fcfcfe" stroke="#fcfcfe"></path><path d="M237.3 0L219.3 154L406.7 182Z" fill="#fdfdfe" stroke="#fdfdfe"></path><path d="M0 895L186.3 1080L225.3 933Z" fill="#fcfcfe" stroke="#fcfcfe"></path><path d="M225.3 933L186.3 1080L465.7 1080Z" fill="#f7f7fb" stroke="#f7f7fb"></path><path d="M418.7 0L237.3 0L406.7 182Z" fill="#f9f9fc" stroke="#f9f9fc"></path><path d="M0 339L0 559L192.3 383Z" fill="#fafafd" stroke="#fafafd"></path><path d="M0 339L192.3 383L219.3 154Z" fill="#f6f6fb" stroke="#f6f6fb"></path><path d="M192.3 383L0 559L188.3 571Z" fill="#f7f7fb" stroke="#f7f7fb"></path><path d="M188.3 571L0 758L221.3 686Z" fill="#f9f9fc" stroke="#f9f9fc"></path><path d="M0 559L0 758L188.3 571Z" fill="#fefeff" stroke="#fefeff"></path><path d="M0 758L0 895L225.3 933Z" fill="#f8f8fc" stroke="#f8f8fc"></path><path d="M0 167L0 339L219.3 154Z" fill="#f7f7fb" stroke="#f7f7fb"></path><path d="M0 0L0 167L219.3 154Z" fill="#f7f7fb" stroke="#f7f7fb"></path><path d="M0 895L0 1080L186.3 1080Z" fill="#fcfcfe" stroke="#fcfcfe"></path><path d="M237.3 0L0 0L219.3 154Z" fill="#f8f8fc" stroke="#f8f8fc"></path></g></svg>