<?xml version="1.0" encoding="iso-8859-1"?>
<!-- Generator: Adobe Illustrator 16.0.0, SVG Export Plug-In . SVG Version: 6.00 Build 0)  -->
<!DOCTYPE svg PUBLIC "-//W3C//DTD SVG 1.1//EN" "http://www.w3.org/Graphics/SVG/1.1/DTD/svg11.dtd">
<svg version="1.1" id="Capa_1" xmlns="http://www.w3.org/2000/svg" xmlns:xlink="http://www.w3.org/1999/xlink" x="0px" y="0px"
	 width="190.326px" height="190.326px" viewBox="0 0 190.326 190.326" style="enable-background:new 0 0 190.326 190.326;"
	 xml:space="preserve">
<g>
	<g>
		<path d="M60.776,87.985c-4.392-3.22-8.913-4.639-13.253-4.659c-0.091-7.059-0.257-14.128-0.365-21.196
			c2.333-1.73,4.597-3.489,6.703-5.334c11.432-10.009,18.963-24.581,17.818-40.008c-0.83-11.199-14.08-22.76-24.114-13.291
			c-4.211,3.974-4.862,11.248-5.499,16.608c-1.474,12.397-1.135,25.093-1.073,37.552c0.003,0.504,0.002,1.006,0.004,1.51
			c-7.344,5.553-15.134,10.665-21.802,16.97C7.824,86.89,0.827,103.481,6.557,118.78c4.91,13.11,18.846,19.888,32.154,20.057
			c0.042,0,0.085-0.004,0.128-0.004c-0.021,0.29-0.036,0.578-0.056,0.869c-0.631,8.783-0.876,17.683,0.167,26.431
			c-3.565-6.51-10.267-11.525-17.429-12.31C10.217,152.583,4.25,166.913,6.18,176.14c1.146,5.479,5.363,9.286,10.36,11.367
			c12.537,6.923,34.552,0.747,29.17-14.768c-0.057-0.166-0.159-0.283-0.237-0.427c-1.247-11.357-0.977-22.71-0.277-34.067
			c11.747-2.17,22.89-10.35,26.98-21.478C76.208,105.802,69.418,94.321,60.776,87.985z M40.917,84.395
			c-7.499,2.494-13.824,9.112-17.006,17.505c-1.191,3.139,4.042,5.342,5.426,2.288c2.582-5.697,5.997-11.094,11.494-13.45
			c-0.231,13.969-0.718,27.908-1.592,41.937c-0.175,0.011-0.353,0.03-0.527,0.038c-21.965,0.959-33.142-20.467-24.67-39.209
			c5.323-11.775,16.32-19.423,26.973-26.949C41.018,72.517,40.984,78.461,40.917,84.395z M48.339,20.106
			c0.397-4.035,1.193-8.115,3.253-11.645c3.834-6.568,11.867,1.501,13.244,5.573c2.742,8.106-0.702,19.043-5.018,26
			c-3.457,5.573-7.891,10.141-12.75,14.278C46.997,42.88,47.223,31.462,48.339,20.106z M45.645,131.55
			c0.784-10.875,1.743-21.754,1.898-32.643c0.044-3.125,0.051-6.254,0.036-9.386c6.482,0.309,12.461,4.811,16.056,9.924
			C73.924,114.077,59.825,127.576,45.645,131.55z"/>
		<path d="M184.079,73.75c0.072-5.746,3.25-21.708-2.016-26.761c0.077-0.771-0.86-1.61-1.673-1.11
			c-0.016,0.009-0.029,0.021-0.044,0.031c-0.051-0.013-0.099-0.037-0.148-0.05c-0.05-1.441-1.023-2.816-2.976-2.868
			c-11.328-0.304-23.998,4.394-34.737,7.437c-6.606,1.872-13.199,3.891-19.58,6.437c-2.432,0.97-6.995,2.343-8.573,4.993
			c-0.403,0.191-0.754,0.486-0.967,0.908c-2.226,4.408-1.129,10.39-1.127,15.222c0.004,7.429,0.13,14.855,0.409,22.278
			c0.264,7.026,0.775,14.087,1.722,21.055c0.121,0.896,0.229,1.883,0.342,2.912c-5.691-3.604-14.762-2.813-21.808,1.335
			c-5.817,3.424-10.358,9.387-10.196,16.342c0.197,8.452,7.894,15.695,16.111,16.258c9.324,0.64,18.745-4.573,21.41-13.838
			c0.504-1.75,0.676-3.559,0.562-5.33c0.506-0.055,0.967-0.354,1.153-0.943c1.46-4.6-0.782-10.478-1.342-15.157
			c-0.9-7.524-1.368-15.064-1.693-22.634c-0.244-5.687-0.318-11.379-0.354-17.072c1.808-0.552,3.601-1.472,5.035-2.037
			c6.831-2.691,13.643-5.432,20.499-8.058c9.677-3.706,22.521-10.244,33.136-9.831c0.404,0.016,0.8-0.112,1.147-0.33
			c-0.159,5.202-0.676,10.453-0.281,15.478c1.096,13.938,1.297,27.971,2.132,41.93c-3.529-4.905-9.472-8.484-15.069-8.896
			c-4.088-0.301-7.807,1.474-10.823,4.138c-11.339,3.862-14.262,23.294-3.333,30.817c2.546,1.753,5.447,2.676,8.442,2.923
			c4.512,0.947,9.434,0.576,13.402-0.72c6.672-2.179,11.591-8.814,11.631-15.282c0.434-0.338,0.76-0.858,0.824-1.591
			C187.022,112.332,183.837,93.087,184.079,73.75z M105.789,143.31c-0.034,0.044-0.073,0.074-0.108,0.116
			c1.562-2.602,1.896-5.579-0.356-7.156c-0.068-0.195-0.15-0.372-0.247-0.544c0.039-0.017,0.079-0.027,0.118-0.044
			c0.075,0.061,0.156,0.113,0.228,0.177c1.102,0.967,1.576,2.304,1.661,3.705C106.908,141.097,106.334,142.631,105.789,143.31z"/>
	</g>
</g>
<g>
</g>
<g>
</g>
<g>
</g>
<g>
</g>
<g>
</g>
<g>
</g>
<g>
</g>
<g>
</g>
<g>
</g>
<g>
</g>
<g>
</g>
<g>
</g>
<g>
</g>
<g>
</g>
<g>
</g>
</svg>
